<?xml version="1.0" standalone="no"?>
<!DOCTYPE svg PUBLIC "-//W3C//DTD SVG 20010904//EN"
 "http://www.w3.org/TR/2001/REC-SVG-20010904/DTD/svg10.dtd">
<svg version="1.0" xmlns="http://www.w3.org/2000/svg"
 width="1136.000000pt" height="1136.000000pt" viewBox="0 0 1136.000000 1136.000000"
 preserveAspectRatio="xMidYMid meet">
<metadata>
Created by potrace 1.11, written by Peter Selinger 2001-2013
</metadata>
<g transform="translate(0.000000,1136.000000) scale(0.100000,-0.100000)"
fill="#000000" stroke="none">
<path d="M6589 10816 c-2 -2 -56 -6 -119 -10 -63 -3 -131 -8 -150 -11 -19 -2
-75 -9 -125 -15 -160 -19 -191 -24 -415 -64 -157 -28 -551 -134 -675 -183 -22
-8 -47 -16 -56 -18 -9 -2 -90 -33 -180 -68 -442 -176 -814 -379 -1229 -671
-315 -222 -664 -544 -906 -836 -173 -208 -316 -421 -416 -622 l-44 -87 -84 42
c-83 41 -234 137 -275 174 -11 10 -40 34 -65 54 -53 43 -88 75 -235 218 -255
248 -394 343 -516 355 -160 16 -209 -98 -209 -487 0 -203 16 -417 45 -582 1
-11 6 -38 10 -60 13 -82 48 -225 96 -400 54 -196 63 -228 170 -574 l71 -233
-26 -24 c-96 -90 -192 -279 -214 -424 -9 -60 -8 -292 2 -355 4 -27 9 -62 12
-77 27 -172 135 -495 229 -686 32 -65 32 -68 15 -87 -27 -31 -47 -76 -69 -155
-11 -40 -20 -75 -19 -79 0 -3 0 -23 -1 -43 -1 -34 -11 -46 -130 -156 -306
-283 -528 -447 -826 -612 -105 -58 -167 -110 -177 -147 -10 -38 39 -96 127
-150 65 -40 230 -96 335 -113 41 -6 86 -13 100 -16 33 -5 340 -6 365 -1 11 3
50 8 87 11 37 4 81 11 98 16 39 11 37 11 90 -20 119 -69 341 -157 440 -174 19
-3 45 -8 58 -11 56 -10 155 -18 257 -19 95 -1 114 -4 140 -22 128 -91 373
-167 547 -168 59 -1 104 -4 100 -8 -4 -4 -128 -68 -277 -143 -287 -146 -351
-186 -390 -243 -73 -108 18 -242 192 -283 211 -50 491 77 793 361 l65 61 75
-6 c98 -7 286 -7 375 0 61 5 105 11 240 31 64 10 261 66 358 103 469 176 856
525 1088 980 58 114 43 105 139 86 42 -8 132 -56 194 -103 151 -116 276 -336
345 -607 31 -122 36 -175 35 -355 -1 -243 -39 -399 -153 -635 -47 -98 -194
-335 -220 -355 -3 -3 -38 -43 -78 -90 -461 -546 -1367 -1041 -2518 -1376 -88
-25 -164 -47 -170 -48 -78 -16 -125 -31 -112 -35 34 -12 701 -2 907 14 30 2
93 7 140 10 47 3 103 8 125 10 22 2 72 7 110 10 39 3 86 8 105 10 70 8 136 16
175 19 47 5 130 16 165 22 14 2 61 8 105 14 108 15 337 55 525 92 85 16 164
32 175 34 11 2 38 8 60 13 43 10 98 23 102 22 2 0 44 12 95 25 51 14 102 27
114 30 64 12 367 104 549 165 460 156 775 299 1225 556 135 77 515 347 605
429 11 11 52 46 90 79 153 133 383 375 494 520 339 445 561 890 654 1315 42
192 52 281 52 490 0 167 -6 257 -25 365 -6 33 -14 74 -16 90 -9 47 -52 206
-69 255 -9 25 -18 52 -20 60 -2 8 -24 64 -49 123 -158 377 -412 725 -751 1032
l-40 36 70 -6 c59 -5 113 -15 160 -29 6 -1 30 -8 55 -15 105 -29 353 -166 454
-251 145 -121 246 -217 317 -298 150 -172 217 -268 290 -419 69 -142 117 -297
144 -468 11 -71 15 -388 5 -455 -5 -36 -11 -83 -14 -105 -10 -83 -18 -123 -46
-243 -112 -466 -376 -1008 -727 -1492 -58 -79 -51 -74 147 90 332 277 619 566
914 920 189 228 436 595 561 835 26 50 50 95 54 100 12 16 130 281 158 354 38
99 84 233 89 256 2 11 8 31 13 45 28 71 124 493 150 660 6 36 13 75 15 86 6
32 14 83 21 139 4 28 8 60 10 73 2 13 7 53 10 90 4 37 8 78 11 92 5 35 16 271
17 360 0 87 -12 331 -17 339 -2 3 -7 35 -10 71 -20 195 -98 463 -189 645 -54
110 -98 177 -201 309 -39 49 -166 176 -257 257 -406 358 -967 617 -1544 713
-87 15 -166 26 -220 31 -33 3 -67 8 -75 10 -34 9 -247 18 -425 19 -220 0 -370
-8 -540 -29 -27 -4 -63 -8 -80 -10 -51 -5 -118 -16 -160 -25 -22 -5 -41 -7
-43 -6 -5 6 195 100 298 141 52 20 104 41 115 46 85 36 386 119 521 143 16 3
40 8 54 11 41 8 82 15 130 21 25 3 56 7 70 10 54 9 232 18 365 18 378 1 710
-61 1030 -189 223 -90 477 -241 593 -352 25 -24 22 -13 -8 35 -195 306 -501
637 -840 906 -156 124 -288 217 -445 313 -357 216 -699 366 -1105 483 -192 55
-464 113 -635 135 -22 2 -51 7 -65 10 -14 3 -52 7 -85 10 -33 3 -80 8 -105 10
-25 3 -74 8 -110 11 -74 7 -705 15 -711 10z"/>
</g>
</svg>
